<mxfile host="Electron" agent="Mozilla/5.0 (Windows NT 10.0; Win64; x64) AppleWebKit/537.36 (KHTML, like Gecko) draw.io/24.7.17 Chrome/128.0.6613.36 Electron/32.0.1 Safari/537.36" version="24.7.17">
  <diagram name="Page-1" id="5f0bae14-7c28-e335-631c-24af17079c00">
    <mxGraphModel dx="863" dy="505" grid="1" gridSize="10" guides="1" tooltips="1" connect="1" arrows="1" fold="1" page="1" pageScale="1" pageWidth="1100" pageHeight="850" background="none" math="0" shadow="0">
      <root>
        <mxCell id="0" />
        <mxCell id="1" parent="0" />
        <mxCell id="5ntWk99BVRicgcjImMjZ-29" value="" style="html=1;dropTarget=0;whiteSpace=wrap;fillColor=#1ba1e2;fontColor=#ffffff;strokeColor=#00060A;" parent="1" vertex="1">
          <mxGeometry x="40" y="125" width="640" height="325" as="geometry" />
        </mxCell>
        <mxCell id="5ntWk99BVRicgcjImMjZ-30" value="" style="shape=module;jettyWidth=8;jettyHeight=4;fillColor=#1ba1e2;fontColor=#ffffff;strokeColor=#006EAF;" parent="5ntWk99BVRicgcjImMjZ-29" vertex="1">
          <mxGeometry x="1" width="20" height="20" relative="1" as="geometry">
            <mxPoint x="-27" y="7" as="offset" />
          </mxGeometry>
        </mxCell>
        <mxCell id="5ntWk99BVRicgcjImMjZ-34" value="" style="group" parent="1" vertex="1" connectable="0">
          <mxGeometry x="500" y="275" width="150" height="80" as="geometry" />
        </mxCell>
        <mxCell id="5ntWk99BVRicgcjImMjZ-31" value="«component»&lt;br&gt;&lt;b&gt;Planning&lt;/b&gt;" style="html=1;dropTarget=0;whiteSpace=wrap;fillColor=#1ba1e2;fontColor=#ffffff;strokeColor=#000000;" parent="5ntWk99BVRicgcjImMjZ-34" vertex="1">
          <mxGeometry y="10" width="150" height="70" as="geometry" />
        </mxCell>
        <mxCell id="5ntWk99BVRicgcjImMjZ-32" value="" style="shape=module;jettyWidth=8;jettyHeight=4;fillColor=#1ba1e2;fontColor=#ffffff;strokeColor=#006EAF;" parent="5ntWk99BVRicgcjImMjZ-31" vertex="1">
          <mxGeometry x="1" width="20" height="20" relative="1" as="geometry">
            <mxPoint x="-27" y="7" as="offset" />
          </mxGeometry>
        </mxCell>
        <mxCell id="5ntWk99BVRicgcjImMjZ-33" value="" style="rounded=0;whiteSpace=wrap;html=1;fillColor=#1ba1e2;fontColor=#ffffff;strokeColor=#000000;" parent="5ntWk99BVRicgcjImMjZ-34" vertex="1">
          <mxGeometry x="-5" y="60" width="10" height="15" as="geometry" />
        </mxCell>
        <mxCell id="5ntWk99BVRicgcjImMjZ-46" value="" style="group" parent="1" vertex="1" connectable="0">
          <mxGeometry x="190" y="350" width="150" height="80" as="geometry" />
        </mxCell>
        <mxCell id="5ntWk99BVRicgcjImMjZ-47" value="«component»&lt;br&gt;&lt;b&gt;3D Visualization&lt;/b&gt;" style="html=1;dropTarget=0;whiteSpace=wrap;fillColor=#1ba1e2;fontColor=#ffffff;strokeColor=#000000;" parent="5ntWk99BVRicgcjImMjZ-46" vertex="1">
          <mxGeometry y="10" width="150" height="70" as="geometry" />
        </mxCell>
        <mxCell id="5ntWk99BVRicgcjImMjZ-48" value="" style="shape=module;jettyWidth=8;jettyHeight=4;fillColor=#1ba1e2;fontColor=#ffffff;strokeColor=#006EAF;" parent="5ntWk99BVRicgcjImMjZ-47" vertex="1">
          <mxGeometry x="1" width="20" height="20" relative="1" as="geometry">
            <mxPoint x="-27" y="7" as="offset" />
          </mxGeometry>
        </mxCell>
        <mxCell id="5ntWk99BVRicgcjImMjZ-50" value="" style="group" parent="1" vertex="1" connectable="0">
          <mxGeometry x="500" y="180" width="150" height="80" as="geometry" />
        </mxCell>
        <mxCell id="5ntWk99BVRicgcjImMjZ-51" value="«component»&lt;br&gt;&lt;b&gt;BPC&lt;/b&gt;" style="html=1;dropTarget=0;whiteSpace=wrap;fillColor=#1ba1e2;fontColor=#ffffff;strokeColor=#000000;" parent="5ntWk99BVRicgcjImMjZ-50" vertex="1">
          <mxGeometry y="10" width="150" height="70" as="geometry" />
        </mxCell>
        <mxCell id="5ntWk99BVRicgcjImMjZ-52" value="" style="shape=module;jettyWidth=8;jettyHeight=4;fillColor=#1ba1e2;fontColor=#ffffff;strokeColor=#006EAF;" parent="5ntWk99BVRicgcjImMjZ-51" vertex="1">
          <mxGeometry x="1" width="20" height="20" relative="1" as="geometry">
            <mxPoint x="-27" y="7" as="offset" />
          </mxGeometry>
        </mxCell>
        <mxCell id="5ntWk99BVRicgcjImMjZ-59" value="&lt;span style=&quot;color: rgb(255, 255, 255);&quot;&gt;«component»&lt;/span&gt;&lt;br style=&quot;color: rgb(255, 255, 255);&quot;&gt;&lt;span style=&quot;color: rgb(255, 255, 255);&quot;&gt;«C4 system»&lt;/span&gt;&lt;br style=&quot;color: rgb(255, 255, 255);&quot;&gt;&lt;b style=&quot;color: rgb(255, 255, 255);&quot;&gt;Healthcare System&lt;/b&gt;" style="text;html=1;align=center;verticalAlign=middle;whiteSpace=wrap;rounded=0;" parent="1" vertex="1">
          <mxGeometry x="390" y="130" width="150" height="50" as="geometry" />
        </mxCell>
        <mxCell id="aWajuIK19yeN8hbnkcbw-7" value="" style="group" parent="1" vertex="1" connectable="0">
          <mxGeometry x="242.5" y="160" width="157.5" height="80" as="geometry" />
        </mxCell>
        <mxCell id="5ntWk99BVRicgcjImMjZ-42" value="" style="group" parent="aWajuIK19yeN8hbnkcbw-7" vertex="1" connectable="0">
          <mxGeometry width="157.5" height="80" as="geometry" />
        </mxCell>
        <mxCell id="5ntWk99BVRicgcjImMjZ-43" value="«component»&lt;br&gt;&lt;b&gt;Backoffice&lt;/b&gt;" style="html=1;dropTarget=0;whiteSpace=wrap;fillColor=#1ba1e2;fontColor=#ffffff;strokeColor=#000000;" parent="5ntWk99BVRicgcjImMjZ-42" vertex="1">
          <mxGeometry y="10" width="150" height="70" as="geometry" />
        </mxCell>
        <mxCell id="5ntWk99BVRicgcjImMjZ-44" value="" style="shape=module;jettyWidth=8;jettyHeight=4;fillColor=#1ba1e2;fontColor=#ffffff;strokeColor=#006EAF;" parent="5ntWk99BVRicgcjImMjZ-43" vertex="1">
          <mxGeometry x="1" width="20" height="20" relative="1" as="geometry">
            <mxPoint x="-27" y="7" as="offset" />
          </mxGeometry>
        </mxCell>
        <mxCell id="MUdgfgchrhalaana_HS_-20" value="" style="rounded=0;whiteSpace=wrap;html=1;fillColor=#1ba1e2;fontColor=#ffffff;strokeColor=#000000;rotation=90;" parent="5ntWk99BVRicgcjImMjZ-42" vertex="1">
          <mxGeometry x="112.5" width="10" height="15" as="geometry" />
        </mxCell>
        <mxCell id="MUdgfgchrhalaana_HS_-27" value="" style="rounded=0;whiteSpace=wrap;html=1;fillColor=#1ba1e2;fontColor=#ffffff;strokeColor=#000000;" parent="5ntWk99BVRicgcjImMjZ-42" vertex="1">
          <mxGeometry x="146.5" y="60" width="10" height="15" as="geometry" />
        </mxCell>
        <mxCell id="aWajuIK19yeN8hbnkcbw-20" value="" style="ellipse;whiteSpace=wrap;html=1;align=center;aspect=fixed;fillColor=none;strokeColor=none;resizable=0;perimeter=centerPerimeter;rotatable=0;allowArrows=0;points=[];outlineConnect=1;" parent="1" vertex="1">
          <mxGeometry x="400" y="350" width="10" height="10" as="geometry" />
        </mxCell>
        <mxCell id="aWajuIK19yeN8hbnkcbw-23" value="" style="rounded=0;orthogonalLoop=1;jettySize=auto;html=1;endArrow=halfCircle;endFill=0;endSize=11;strokeWidth=1;sketch=0;fontSize=12;curved=1;entryX=1;entryY=0.5;entryDx=0;entryDy=0;strokeColor=#000000;startSize=6;targetPerimeterSpacing=8;sourcePerimeterSpacing=0;exitX=0;exitY=0.5;exitDx=0;exitDy=0;" parent="1" source="5ntWk99BVRicgcjImMjZ-33" target="aWajuIK19yeN8hbnkcbw-16" edge="1">
          <mxGeometry relative="1" as="geometry">
            <mxPoint x="400" y="432.79" as="sourcePoint" />
            <mxPoint x="384.99883476483194" y="367.2088347648319" as="targetPoint" />
          </mxGeometry>
        </mxCell>
        <mxCell id="aWajuIK19yeN8hbnkcbw-24" value="" style="ellipse;whiteSpace=wrap;html=1;align=center;aspect=fixed;fillColor=none;strokeColor=none;resizable=0;perimeter=centerPerimeter;rotatable=0;allowArrows=0;points=[];outlineConnect=1;" parent="1" vertex="1">
          <mxGeometry x="430" y="370" width="10" height="10" as="geometry" />
        </mxCell>
        <mxCell id="MUdgfgchrhalaana_HS_-1" style="edgeStyle=orthogonalEdgeStyle;rounded=0;orthogonalLoop=1;jettySize=auto;html=1;entryX=0.5;entryY=0;entryDx=0;entryDy=0;endArrow=none;endFill=0;strokeColor=#000000;" parent="1" source="MUdgfgchrhalaana_HS_-3" target="MUdgfgchrhalaana_HS_-7" edge="1">
          <mxGeometry relative="1" as="geometry" />
        </mxCell>
        <mxCell id="MUdgfgchrhalaana_HS_-2" value="Doctor UI" style="edgeLabel;html=1;align=center;verticalAlign=middle;resizable=0;points=[];labelBackgroundColor=none;fontStyle=1" parent="MUdgfgchrhalaana_HS_-1" vertex="1" connectable="0">
          <mxGeometry x="-0.3286" y="-1" relative="1" as="geometry">
            <mxPoint as="offset" />
          </mxGeometry>
        </mxCell>
        <mxCell id="MUdgfgchrhalaana_HS_-3" value="" style="ellipse;whiteSpace=wrap;html=1;fillColor=#1ba1e2;fontColor=#ffffff;strokeColor=#006EAF;" parent="1" vertex="1">
          <mxGeometry x="160" width="20" height="20" as="geometry" />
        </mxCell>
        <mxCell id="MUdgfgchrhalaana_HS_-4" value="" style="ellipse;whiteSpace=wrap;html=1;fillColor=#1ba1e2;fontColor=#ffffff;strokeColor=#006EAF;" parent="1" vertex="1">
          <mxGeometry x="80" y="40" width="20" height="20" as="geometry" />
        </mxCell>
        <mxCell id="MUdgfgchrhalaana_HS_-5" style="edgeStyle=orthogonalEdgeStyle;rounded=0;orthogonalLoop=1;jettySize=auto;html=1;exitX=0.5;exitY=0;exitDx=0;exitDy=0;entryX=0.5;entryY=1;entryDx=0;entryDy=0;endArrow=none;endFill=0;strokeColor=#000000;" parent="1" source="MUdgfgchrhalaana_HS_-7" target="MUdgfgchrhalaana_HS_-4" edge="1">
          <mxGeometry relative="1" as="geometry">
            <mxPoint x="120" y="80" as="targetPoint" />
            <mxPoint x="165" y="110" as="sourcePoint" />
            <Array as="points">
              <mxPoint x="170" y="100" />
              <mxPoint x="90" y="100" />
            </Array>
          </mxGeometry>
        </mxCell>
        <mxCell id="MUdgfgchrhalaana_HS_-6" value="Patient UI" style="edgeLabel;html=1;align=center;verticalAlign=middle;resizable=0;points=[];labelBackgroundColor=none;fontStyle=1" parent="MUdgfgchrhalaana_HS_-5" vertex="1" connectable="0">
          <mxGeometry x="0.8074" y="1" relative="1" as="geometry">
            <mxPoint x="1" y="7" as="offset" />
          </mxGeometry>
        </mxCell>
        <mxCell id="MUdgfgchrhalaana_HS_-22" style="edgeStyle=orthogonalEdgeStyle;rounded=0;orthogonalLoop=1;jettySize=auto;html=1;exitX=0.5;exitY=1;exitDx=0;exitDy=0;entryX=0.5;entryY=0;entryDx=0;entryDy=0;strokeColor=#000000;endArrow=none;endFill=0;" parent="1" source="MUdgfgchrhalaana_HS_-7" target="MUdgfgchrhalaana_HS_-21" edge="1">
          <mxGeometry relative="1" as="geometry">
            <Array as="points">
              <mxPoint x="171" y="140" />
              <mxPoint x="170" y="140" />
              <mxPoint x="170" y="216" />
            </Array>
          </mxGeometry>
        </mxCell>
        <mxCell id="MUdgfgchrhalaana_HS_-7" value="" style="rounded=0;whiteSpace=wrap;html=1;fillColor=#1ba1e2;fontColor=#ffffff;strokeColor=#000000;" parent="1" vertex="1">
          <mxGeometry x="163" y="120" width="15" height="10" as="geometry" />
        </mxCell>
        <mxCell id="MUdgfgchrhalaana_HS_-8" style="edgeStyle=orthogonalEdgeStyle;rounded=0;orthogonalLoop=1;jettySize=auto;html=1;entryX=0.5;entryY=0;entryDx=0;entryDy=0;endArrow=none;endFill=0;strokeColor=#000000;" parent="1" source="MUdgfgchrhalaana_HS_-10" target="MUdgfgchrhalaana_HS_-7" edge="1">
          <mxGeometry relative="1" as="geometry">
            <Array as="points">
              <mxPoint x="230" y="100" />
              <mxPoint x="170" y="100" />
            </Array>
          </mxGeometry>
        </mxCell>
        <mxCell id="MUdgfgchrhalaana_HS_-9" value="Admin UI" style="edgeLabel;html=1;align=center;verticalAlign=middle;resizable=0;points=[];labelBackgroundColor=none;fontStyle=1" parent="MUdgfgchrhalaana_HS_-8" vertex="1" connectable="0">
          <mxGeometry x="-0.7862" relative="1" as="geometry">
            <mxPoint y="7" as="offset" />
          </mxGeometry>
        </mxCell>
        <mxCell id="MUdgfgchrhalaana_HS_-10" value="" style="ellipse;whiteSpace=wrap;html=1;fillColor=#1ba1e2;fontColor=#ffffff;strokeColor=#006EAF;" parent="1" vertex="1">
          <mxGeometry x="220" y="40" width="20" height="20" as="geometry" />
        </mxCell>
        <mxCell id="MUdgfgchrhalaana_HS_-15" value="" style="group" parent="1" vertex="1" connectable="0">
          <mxGeometry x="50" y="220" width="150" height="80" as="geometry" />
        </mxCell>
        <mxCell id="MUdgfgchrhalaana_HS_-12" value="«component»&lt;br&gt;&lt;b&gt;Visualization (UI)&lt;/b&gt;" style="html=1;dropTarget=0;whiteSpace=wrap;fillColor=#1ba1e2;fontColor=#ffffff;strokeColor=#000000;" parent="MUdgfgchrhalaana_HS_-15" vertex="1">
          <mxGeometry width="150" height="70" as="geometry" />
        </mxCell>
        <mxCell id="MUdgfgchrhalaana_HS_-13" value="" style="shape=module;jettyWidth=8;jettyHeight=4;fillColor=#1ba1e2;fontColor=#ffffff;strokeColor=#006EAF;" parent="MUdgfgchrhalaana_HS_-12" vertex="1">
          <mxGeometry x="1" width="20" height="20" relative="1" as="geometry">
            <mxPoint x="-27" y="7" as="offset" />
          </mxGeometry>
        </mxCell>
        <mxCell id="MUdgfgchrhalaana_HS_-14" value="" style="rounded=0;whiteSpace=wrap;html=1;fillColor=#1ba1e2;fontColor=#ffffff;strokeColor=#000000;" parent="MUdgfgchrhalaana_HS_-15" vertex="1">
          <mxGeometry x="27.5" y="64" width="12.5" height="10" as="geometry" />
        </mxCell>
        <mxCell id="MUdgfgchrhalaana_HS_-25" value="" style="ellipse;whiteSpace=wrap;html=1;align=center;aspect=fixed;fillColor=none;strokeColor=none;resizable=0;perimeter=centerPerimeter;rotatable=0;allowArrows=0;points=[];outlineConnect=1;" parent="1" vertex="1">
          <mxGeometry x="375" y="80" width="10" height="10" as="geometry" />
        </mxCell>
        <mxCell id="MUdgfgchrhalaana_HS_-28" style="edgeStyle=orthogonalEdgeStyle;rounded=0;orthogonalLoop=1;jettySize=auto;html=1;exitX=0.5;exitY=1;exitDx=0;exitDy=0;entryX=0;entryY=0.5;entryDx=0;entryDy=0;endArrow=none;endFill=0;strokeColor=#000000;" parent="1" source="MUdgfgchrhalaana_HS_-26" target="MUdgfgchrhalaana_HS_-20" edge="1">
          <mxGeometry relative="1" as="geometry">
            <Array as="points">
              <mxPoint x="360" y="70" />
            </Array>
          </mxGeometry>
        </mxCell>
        <mxCell id="MUdgfgchrhalaana_HS_-29" value="&lt;b&gt;Backoffice API&lt;/b&gt;" style="edgeLabel;html=1;align=center;verticalAlign=middle;resizable=0;points=[];labelBackgroundColor=none;" parent="MUdgfgchrhalaana_HS_-28" vertex="1" connectable="0">
          <mxGeometry x="-0.8898" relative="1" as="geometry">
            <mxPoint y="23" as="offset" />
          </mxGeometry>
        </mxCell>
        <mxCell id="MUdgfgchrhalaana_HS_-26" value="" style="ellipse;whiteSpace=wrap;html=1;fillColor=#1ba1e2;fontColor=#ffffff;strokeColor=#006EAF;" parent="1" vertex="1">
          <mxGeometry x="350" y="50" width="20" height="20" as="geometry" />
        </mxCell>
        <mxCell id="aWajuIK19yeN8hbnkcbw-16" value="" style="ellipse;whiteSpace=wrap;html=1;aspect=fixed;fillColor=#1ba1e2;fontColor=#ffffff;strokeColor=#000000;" parent="1" vertex="1">
          <mxGeometry x="399" y="330" width="25" height="25" as="geometry" />
        </mxCell>
        <mxCell id="MUdgfgchrhalaana_HS_-31" style="edgeStyle=orthogonalEdgeStyle;rounded=0;orthogonalLoop=1;jettySize=auto;html=1;exitX=1;exitY=0.5;exitDx=0;exitDy=0;strokeColor=#1C1C1C;endArrow=none;endFill=0;" parent="1" source="MUdgfgchrhalaana_HS_-27" target="aWajuIK19yeN8hbnkcbw-16" edge="1">
          <mxGeometry relative="1" as="geometry">
            <Array as="points">
              <mxPoint x="411" y="227" />
            </Array>
          </mxGeometry>
        </mxCell>
        <mxCell id="MUdgfgchrhalaana_HS_-32" value="&lt;b&gt;Backoffice API&lt;/b&gt;" style="edgeLabel;html=1;align=center;verticalAlign=middle;resizable=0;points=[];labelBackgroundColor=none;" parent="MUdgfgchrhalaana_HS_-31" vertex="1" connectable="0">
          <mxGeometry x="0.0124" relative="1" as="geometry">
            <mxPoint as="offset" />
          </mxGeometry>
        </mxCell>
        <mxCell id="MUdgfgchrhalaana_HS_-33" style="edgeStyle=orthogonalEdgeStyle;rounded=0;orthogonalLoop=1;jettySize=auto;html=1;exitX=0.5;exitY=1;exitDx=0;exitDy=0;entryX=0;entryY=0.5;entryDx=0;entryDy=0;strokeColor=#050505;endArrow=halfCircle;endFill=0;endSize=10;startSize=6;" parent="1" source="MUdgfgchrhalaana_HS_-14" target="aWajuIK19yeN8hbnkcbw-16" edge="1">
          <mxGeometry relative="1" as="geometry" />
        </mxCell>
        <mxCell id="MUdgfgchrhalaana_HS_-21" value="" style="rounded=0;whiteSpace=wrap;html=1;fillColor=#1ba1e2;fontColor=#ffffff;strokeColor=#000000;" parent="1" vertex="1">
          <mxGeometry x="163" y="216" width="12.5" height="10" as="geometry" />
        </mxCell>
      </root>
    </mxGraphModel>
  </diagram>
</mxfile>
